<svg width="450" height="168" viewBox="0 0 450 168" fill="none" xmlns="http://www.w3.org/2000/svg">
<g clip-path="url(#clip0_152_10)">
<g clip-path="url(#clip1_152_10)">
<g filter="url(#filter0_d_152_10)">
<path d="M57.2391 55.9853C61.2719 55.9853 65.0647 56.7537 68.6174 58.2898C72.2662 59.8258 75.435 61.9388 78.1233 64.627C80.8116 67.3153 82.9245 70.484 84.4606 74.133C86.0932 77.6854 86.9091 81.5267 86.9091 85.6553C86.9091 89.6881 86.0932 93.5286 84.4606 97.1776C82.9245 100.73 80.8116 103.851 78.1233 106.539C75.435 109.228 72.2662 111.388 68.6174 113.021C65.0647 114.557 61.2719 115.325 57.2391 115.325H7.54913V92.5687H56.3749C58.2954 92.5687 59.9276 91.8968 61.2719 90.5523C62.6162 89.2077 63.2883 87.5759 63.2883 85.6553C63.2883 83.7346 62.6162 82.1028 61.2719 80.7583C59.9276 79.4137 58.2954 78.7419 56.3749 78.7419H34.0505C30.1136 78.7419 26.4169 78.0217 22.9602 76.5814C19.5035 75.0454 16.4789 72.9807 13.8864 70.3882C11.3899 67.7957 9.37347 64.7711 7.83719 61.3144C6.3969 57.8577 5.67676 54.1612 5.67676 50.2241C5.67676 46.2873 6.3969 42.5906 7.83719 39.1339C9.37347 35.6772 11.3899 32.7006 13.8864 30.2041C16.4789 27.6116 19.5035 25.5952 22.9602 24.1549C26.4169 22.6186 30.1136 21.8504 34.0505 21.8504H83.0203V44.607H34.9146C33.3784 44.607 32.0341 45.1831 30.8818 46.3354C29.8256 47.3916 29.2975 48.7356 29.2975 50.3682C29.2975 51.9042 29.8256 53.2488 30.8818 54.401C32.0341 55.4575 33.3784 55.9853 34.9146 55.9853H57.2391ZM94.7879 134.625V50.5122C94.7879 48.3035 94.8361 46.6715 94.9319 45.6152C95.1242 44.559 95.5563 43.3588 96.2281 42.0145C97.5727 39.422 100.789 38.1257 105.878 38.1257C110.967 38.1257 114.376 38.7978 116.104 40.1421C117.928 41.3903 118.985 43.2627 119.273 45.7592C122.922 40.7663 128.635 38.2697 136.412 38.2697C144.286 38.2697 151.728 41.9664 158.737 49.36C165.746 56.7537 169.251 65.3472 169.251 75.1412C169.251 84.9351 165.746 93.5286 158.737 100.922C151.823 108.316 144.43 112.013 136.556 112.013C128.683 112.013 122.969 109.804 119.417 105.387V134.481C119.417 136.69 119.321 138.322 119.129 139.378C119.033 140.435 118.601 141.634 117.832 142.979C117.161 144.419 115.96 145.427 114.232 146.003C112.503 146.58 110.151 146.868 107.174 146.868C104.198 146.868 101.797 146.58 99.9729 146.003C98.2445 145.427 96.9966 144.467 96.2281 143.123C95.5563 141.778 95.1242 140.579 94.9319 139.522C94.8361 138.466 94.7879 136.834 94.7879 134.625ZM123.306 66.7875C121.097 69.38 119.993 72.2123 119.993 75.2852C119.993 78.3581 121.097 81.1904 123.306 83.7829C125.61 86.2796 128.491 87.5276 131.947 87.5276C135.5 87.5276 138.477 86.2796 140.877 83.7829C143.374 81.2861 144.622 78.4538 144.622 75.2852C144.622 72.1165 143.47 69.2842 141.165 66.7875C138.861 64.1949 135.836 62.8987 132.091 62.8987C128.442 62.8987 125.514 64.1949 123.306 66.7875ZM265.889 6.58336C266.657 5.14307 267.953 4.13487 269.778 3.55875C271.602 2.98264 274.003 2.69458 276.979 2.69458C280.052 2.69458 282.5 2.98264 284.325 3.55875C286.149 4.13487 287.397 5.14307 288.069 6.58336C288.838 8.02365 289.27 9.31991 289.366 10.4721C289.558 11.5284 289.654 13.1607 289.654 15.3691V101.354C289.654 103.563 289.558 105.243 289.366 106.395C289.27 107.452 288.838 108.652 288.069 109.996C286.629 112.589 282.548 113.885 275.827 113.885C269.201 113.885 265.505 111.532 264.737 106.828C260.704 111.436 255.087 113.741 247.885 113.741C239.243 113.741 231.37 109.996 224.264 102.507C217.159 94.9214 213.606 86.1356 213.606 76.1494C213.606 66.0673 217.159 57.2333 224.264 49.648C231.466 42.0625 239.339 38.2697 247.885 38.2697C254.991 38.2697 260.511 40.6702 264.449 45.4712V15.2251C264.449 13.0166 264.497 11.3844 264.593 10.3281C264.785 9.17588 265.217 7.92766 265.889 6.58336ZM242.556 84.7911C245.053 87.3836 248.077 88.6799 251.63 88.6799C255.182 88.6799 258.111 87.3836 260.416 84.7911C262.816 82.1986 264.016 79.3663 264.016 76.2934C264.016 73.1247 262.864 70.1959 260.56 67.5076C258.351 64.8193 255.326 63.4748 251.486 63.4748C247.645 63.4748 244.573 64.8193 242.268 67.5076C239.964 70.1001 238.811 72.9807 238.811 76.1494C238.811 79.318 240.059 82.1986 242.556 84.7911ZM350.384 46.1913C350.96 40.8142 354.753 38.1257 361.762 38.1257C365.507 38.1257 368.292 38.4138 370.116 38.9899C371.941 39.566 373.189 40.5742 373.861 42.0145C374.629 43.4548 375.061 44.751 375.157 45.9033C375.349 46.9595 375.445 48.5916 375.445 50.8003V101.21C375.445 103.419 375.349 105.099 375.157 106.251C375.061 107.308 374.677 108.556 374.005 109.996C372.661 112.493 369.348 113.741 364.067 113.741C358.882 113.741 355.378 113.117 353.553 111.869C351.824 110.524 350.816 108.604 350.528 106.107C346.976 111.197 341.022 113.741 332.668 113.741C324.411 113.741 316.729 109.948 309.624 102.363C302.519 94.7774 298.966 85.9916 298.966 76.0053C298.966 65.9233 302.519 57.1375 309.624 49.648C316.825 42.0625 324.699 38.2697 333.245 38.2697C336.51 38.2697 339.486 38.8459 342.174 39.9981C344.863 41.1503 346.736 42.2545 347.791 43.3107C348.848 44.2709 349.712 45.2312 350.384 46.1913ZM324.171 76.1494C324.171 79.318 325.419 82.1986 327.915 84.7911C330.412 87.2879 333.437 88.5359 336.989 88.5359C340.543 88.5359 343.471 87.2396 345.775 84.6471C348.176 82.0545 349.376 79.2222 349.376 76.1494C349.376 72.9807 348.224 70.0519 345.919 67.3636C343.711 64.6753 340.687 63.3308 336.845 63.3308C333.1 63.3308 330.028 64.6753 327.627 67.3636C325.323 70.0519 324.171 72.9807 324.171 76.1494ZM438.487 38.9899C440.312 39.566 441.799 40.5742 442.952 42.0145C444.201 43.3588 444.824 45.5672 444.824 48.6398C444.824 51.7127 443.912 55.0729 442.088 58.7218C440.263 62.3708 437.623 64.1949 434.166 64.1949C432.438 64.1949 430.758 63.8111 429.125 63.0427C427.589 62.2743 425.524 61.8905 422.932 61.8905C420.339 61.8905 417.891 62.8029 415.586 64.627C413.378 66.4511 412.274 68.6598 412.274 71.2524V101.498C412.274 103.707 412.178 105.387 411.986 106.539C411.89 107.596 411.458 108.844 410.689 110.284C409.249 112.781 405.504 114.029 399.455 114.029C394.846 114.029 391.533 113.213 389.517 111.58C387.981 110.236 387.117 108.172 386.924 105.387C386.924 104.427 386.924 103.035 386.924 101.21V50.6562C386.924 48.4475 386.973 46.8155 387.069 45.7592C387.261 44.607 387.693 43.3588 388.365 42.0145C389.709 39.422 393.454 38.1257 399.599 38.1257C405.36 38.1257 408.961 39.2299 410.401 41.4384C411.458 42.9747 411.986 44.559 411.986 46.1913C412.466 45.5192 413.138 44.703 414.002 43.7428C414.963 42.7827 416.931 41.4864 419.907 39.8541C422.884 38.2217 425.477 37.4056 427.685 37.4056C429.989 37.4056 431.91 37.5496 433.446 37.8377C434.983 38.0297 436.663 38.4138 438.487 38.9899Z" fill="white"/>
</g>
<g filter="url(#filter1_d_152_10)">
<path d="M196.305 38.9003H186.184C182.529 38.9003 179.566 41.8631 179.566 45.5179V55.6388C179.566 59.2936 182.529 62.2564 186.184 62.2564H196.305C199.96 62.2564 202.923 59.2936 202.923 55.6388V45.5179C202.923 41.8631 199.96 38.9003 196.305 38.9003Z" fill="url(#paint0_linear_152_10)" stroke="black"/>
<path d="M191.124 60.3257C196.574 60.3257 200.992 55.9076 200.992 50.4577C200.992 45.0078 196.574 40.5898 191.124 40.5898C185.674 40.5898 181.256 45.0078 181.256 50.4577C181.256 55.9076 185.674 60.3257 191.124 60.3257Z" fill="url(#paint1_radial_152_10)" stroke="black"/>
<path d="M196.305 64.7244H186.184C182.529 64.7244 179.566 67.6871 179.566 71.3419V81.4629C179.566 85.1176 182.529 88.0804 186.184 88.0804H196.305C199.96 88.0804 202.923 85.1176 202.923 81.4629V71.3419C202.923 67.6871 199.96 64.7244 196.305 64.7244Z" fill="url(#paint2_linear_152_10)" stroke="black"/>
<path d="M191.124 86.1496C196.574 86.1496 200.992 81.7316 200.992 76.2817C200.992 70.8318 196.574 66.4138 191.124 66.4138C185.674 66.4138 181.256 70.8318 181.256 76.2817C181.256 81.7316 185.674 86.1496 191.124 86.1496Z" fill="url(#paint3_radial_152_10)" stroke="black"/>
<path d="M196.305 90.5484H186.184C182.529 90.5484 179.566 93.5112 179.566 97.1659V107.287C179.566 110.942 182.529 113.904 186.184 113.904H196.305C199.96 113.904 202.923 110.942 202.923 107.287V97.1659C202.923 93.5112 199.96 90.5484 196.305 90.5484Z" fill="url(#paint4_linear_152_10)" stroke="black"/>
<path d="M191.124 111.974C196.574 111.974 200.992 107.556 200.992 102.106C200.992 96.6558 196.574 92.2378 191.124 92.2378C185.674 92.2378 181.256 96.6558 181.256 102.106C181.256 107.556 185.674 111.974 191.124 111.974Z" fill="url(#paint5_radial_152_10)" stroke="black"/>
<path d="M184.005 62.6457H198.486V64.3351H184.005V62.6457Z" fill="#7B7B7B"/>
<mask id="mask0_152_10" style="mask-type:luminance" maskUnits="userSpaceOnUse" x="184" y="62" width="15" height="3">
<path d="M184.005 62.6457H198.486V64.3351H184.005V62.6457Z" fill="white"/>
</mask>
<g mask="url(#mask0_152_10)">
<path d="M197.707 62.6457V64.3351H199.264V62.6457H197.707ZM184.783 64.3351V62.6457H183.226V64.3351H184.783Z" fill="black"/>
</g>
<path d="M184.005 88.4697H198.486V90.1591H184.005V88.4697Z" fill="#7B7B7B"/>
<mask id="mask1_152_10" style="mask-type:luminance" maskUnits="userSpaceOnUse" x="184" y="88" width="15" height="3">
<path d="M184.005 88.4697H198.486V90.1591H184.005V88.4697Z" fill="white"/>
</mask>
<g mask="url(#mask1_152_10)">
<path d="M197.707 88.4697V90.1591H199.264V88.4697H197.707ZM184.783 90.1591V88.4697H183.226V90.1591H184.783Z" fill="black"/>
</g>
</g>
<g filter="url(#filter2_d_152_10)">
<path d="M196.305 6.59113H186.962C183.523 6.59113 180.734 9.37962 180.734 12.8194V22.1618C180.734 25.6016 183.523 28.3901 186.962 28.3901H196.305C199.745 28.3901 202.533 25.6016 202.533 22.1618V12.8194C202.533 9.37962 199.745 6.59113 196.305 6.59113Z" fill="white"/>
</g>
</g>
</g>
<path d="M148.199 153.874L147.758 152.267C147.023 152.393 146.235 152.456 145.395 152.456C144.072 152.456 142.865 152.288 141.773 151.952C140.702 151.616 139.778 151.144 139.001 150.535C138.245 149.905 137.657 149.149 137.237 148.267C136.817 147.364 136.607 146.345 136.607 145.211C136.607 142.985 137.321 141.232 138.749 139.951C140.177 138.67 142.245 138.029 144.954 138.029H146.687V135.289H134.37V132.013H154.436V135.289H151.002V141.494H145.017C144.324 141.494 143.726 141.589 143.222 141.778C142.718 141.946 142.308 142.187 141.993 142.502C141.678 142.817 141.437 143.174 141.269 143.573C141.122 143.972 141.048 144.392 141.048 144.833V145.495C141.048 146.671 141.405 147.595 142.119 148.267C142.833 148.939 143.946 149.275 145.458 149.275C145.983 149.275 146.424 149.243 146.781 149.18L145.994 146.44C146.351 146.167 146.802 145.936 147.348 145.747C147.894 145.537 148.503 145.432 149.175 145.432C150.183 145.432 150.96 145.768 151.506 146.44C152.073 147.091 152.356 147.899 152.356 148.865C152.356 149.411 152.22 149.884 151.947 150.283C151.674 150.682 151.296 151.039 150.813 151.354L151.569 152.866L152.483 155.449L149.112 156.552L148.199 153.874ZM145.627 131.131L143.107 127.445H138.603V123.508H142.603C143.59 123.508 144.357 123.697 144.903 124.075C145.449 124.453 145.953 125.03 146.415 125.807L150.289 132.517V133.336H147.108L145.627 131.131ZM154.425 145.715V141.967H158.867C160.715 141.967 162.017 141.694 162.773 141.148C163.529 140.602 163.907 139.856 163.907 138.911V138.187C163.907 137.368 163.686 136.717 163.245 136.234C162.825 135.73 162.216 135.478 161.418 135.478C160.62 135.478 159.99 135.709 159.528 136.171C159.066 136.633 158.72 137.357 158.489 138.344L154.425 136.99C154.614 136.297 154.887 135.646 155.244 135.037C155.622 134.428 156.084 133.903 156.63 133.462C157.197 133 157.869 132.632 158.646 132.359C159.423 132.086 160.316 131.95 161.324 131.95C162.479 131.95 163.487 132.107 164.348 132.422C165.23 132.737 165.954 133.189 166.521 133.777C167.088 134.344 167.508 135.026 167.781 135.824C168.075 136.622 168.222 137.504 168.222 138.47C168.222 140.654 167.571 142.334 166.269 143.51C164.988 144.686 163.256 145.274 161.072 145.274H159.497L159.434 145.463L161.04 146.881L166.206 151.543L163.56 154.284L154.425 145.715ZM170.49 132.013H178.46V135.289H174.806V154H170.49V132.013ZM195.818 148.708H195.661C195.283 149.359 194.726 149.915 193.991 150.377C193.256 150.818 192.238 151.039 190.936 151.039C190.117 151.039 189.34 150.892 188.605 150.598C187.891 150.283 187.261 149.831 186.715 149.243C186.19 148.655 185.77 147.941 185.455 147.101C185.14 146.261 184.982 145.316 184.982 144.266C184.982 143.258 185.129 142.355 185.423 141.557C185.738 140.759 186.158 140.087 186.683 139.541C187.229 138.995 187.87 138.575 188.605 138.281C189.34 137.987 190.148 137.84 191.03 137.84C192.143 137.84 193.099 138.05 193.897 138.47C194.695 138.89 195.283 139.405 195.661 140.014H195.818V135.289H183.376V132.013H212.261V135.289H200.134V140.612H200.291C200.795 139.877 201.425 139.289 202.181 138.848C202.937 138.407 203.882 138.187 205.016 138.187C205.835 138.187 206.602 138.334 207.316 138.628C208.03 138.901 208.649 139.31 209.174 139.856C209.699 140.381 210.109 141.022 210.403 141.778C210.697 142.513 210.844 143.332 210.844 144.235C210.844 146.083 210.34 147.626 209.332 148.865C208.324 150.083 206.812 150.934 204.796 151.417L203.095 148.015C204.418 147.658 205.363 147.206 205.93 146.66C206.518 146.093 206.812 145.421 206.812 144.644V144.077C206.812 143.447 206.612 142.901 206.213 142.439C205.814 141.956 205.174 141.715 204.292 141.715C203.725 141.715 203.189 141.841 202.685 142.093C202.181 142.324 201.74 142.66 201.362 143.101C200.984 143.521 200.68 144.025 200.449 144.613C200.239 145.201 200.134 145.841 200.134 146.534V154H195.818V148.708ZM192.605 147.574C193.151 147.574 193.624 147.49 194.023 147.322C194.443 147.154 194.789 146.944 195.062 146.692C195.356 146.419 195.566 146.114 195.692 145.778C195.839 145.421 195.913 145.054 195.913 144.676V143.794C195.913 143.08 195.619 142.45 195.031 141.904C194.443 141.358 193.634 141.085 192.605 141.085C191.576 141.085 190.768 141.358 190.18 141.904C189.592 142.45 189.298 143.08 189.298 143.794V144.676C189.298 145.054 189.361 145.421 189.487 145.778C189.634 146.114 189.844 146.419 190.117 146.692C190.411 146.944 190.757 147.154 191.156 147.322C191.576 147.49 192.059 147.574 192.605 147.574ZM194.756 131.131L192.236 127.445H187.732V123.508H191.732C192.719 123.508 193.486 123.697 194.032 124.075C194.578 124.453 195.082 125.03 195.544 125.807L199.418 132.517V133.336H196.237L194.756 131.131ZM220.24 135.289H216.554V132.013H220.271V130.847C220.271 129.944 220.45 129.073 220.807 128.233C221.185 127.393 221.762 126.647 222.539 125.996C223.316 125.345 224.314 124.831 225.532 124.453C226.771 124.054 228.251 123.854 229.973 123.854C231.128 123.854 232.262 123.959 233.375 124.169C234.488 124.379 235.538 124.663 236.525 125.02C237.512 125.356 238.426 125.744 239.266 126.185C240.106 126.605 240.841 127.025 241.471 127.445L239.927 130.658C239.171 130.217 238.415 129.808 237.659 129.43C236.903 129.052 236.126 128.726 235.328 128.453C234.53 128.18 233.701 127.97 232.84 127.823C231.979 127.655 231.055 127.571 230.068 127.571C229.081 127.571 228.23 127.676 227.516 127.886C226.823 128.075 226.256 128.327 225.815 128.642C225.374 128.957 225.049 129.314 224.839 129.713C224.65 130.112 224.555 130.511 224.555 130.91V132.013H228.241V135.289H224.555V154H220.24V135.289ZM240.181 153.874L239.74 152.267C239.005 152.393 238.217 152.456 237.377 152.456C236.054 152.456 234.847 152.288 233.755 151.952C232.684 151.616 231.76 151.144 230.983 150.535C230.227 149.905 229.639 149.149 229.219 148.267C228.799 147.364 228.589 146.345 228.589 145.211C228.589 142.985 229.303 141.232 230.731 139.951C232.159 138.67 234.227 138.029 236.936 138.029H238.669V135.289H226.352V132.013H246.418V135.289H242.984V141.494H236.999C236.306 141.494 235.708 141.589 235.204 141.778C234.7 141.946 234.29 142.187 233.975 142.502C233.66 142.817 233.419 143.174 233.251 143.573C233.104 143.972 233.03 144.392 233.03 144.833V145.495C233.03 146.671 233.387 147.595 234.101 148.267C234.815 148.939 235.928 149.275 237.44 149.275C237.965 149.275 238.406 149.243 238.763 149.18L237.976 146.44C238.333 146.167 238.784 145.936 239.33 145.747C239.876 145.537 240.485 145.432 241.157 145.432C242.165 145.432 242.942 145.768 243.488 146.44C244.055 147.091 244.339 147.899 244.339 148.865C244.339 149.411 244.202 149.884 243.929 150.283C243.656 150.682 243.278 151.039 242.795 151.354L243.551 152.866L244.465 155.449L241.094 156.552L240.181 153.874ZM265.048 144.991C265.048 143.017 264.219 142.03 262.56 142.03C260.901 142.03 260.071 143.017 260.071 144.991V148.456H255.945V145.117C255.945 143.059 255.126 142.03 253.488 142.03C251.85 142.03 251.031 143.059 251.031 145.117V146.408C251.031 147.059 251.104 147.637 251.251 148.141C251.398 148.624 251.64 149.044 251.976 149.401C252.333 149.758 252.795 150.062 253.362 150.314C253.929 150.566 254.632 150.787 255.472 150.976L254.685 154.378C251.871 153.979 249.844 153.034 248.605 151.543C247.387 150.031 246.778 148.004 246.778 145.463C246.778 144.392 246.915 143.405 247.188 142.502C247.482 141.599 247.881 140.822 248.385 140.171C248.91 139.52 249.54 139.016 250.275 138.659C251.01 138.302 251.829 138.124 252.732 138.124C254.16 138.124 255.315 138.47 256.197 139.163C257.1 139.835 257.698 140.864 257.992 142.25H258.118C258.391 140.843 258.895 139.825 259.63 139.195C260.365 138.565 261.205 138.25 262.15 138.25C262.822 138.25 263.368 138.344 263.788 138.533C264.229 138.701 264.628 138.953 264.985 139.289H265.143L265.048 136.895V135.289H244.825V132.013H272.986V135.289H269.364V154H265.048V144.991ZM290.338 148.708H290.181C289.803 149.359 289.246 149.915 288.511 150.377C287.776 150.818 286.758 151.039 285.456 151.039C284.637 151.039 283.86 150.892 283.125 150.598C282.411 150.283 281.781 149.831 281.235 149.243C280.71 148.655 280.29 147.941 279.975 147.101C279.66 146.261 279.502 145.316 279.502 144.266C279.502 143.258 279.649 142.355 279.943 141.557C280.258 140.759 280.678 140.087 281.203 139.541C281.749 138.995 282.39 138.575 283.125 138.281C283.86 137.987 284.668 137.84 285.55 137.84C286.663 137.84 287.619 138.05 288.417 138.47C289.215 138.89 289.803 139.405 290.181 140.014H290.338V135.289H277.896V132.013H306.781V135.289H294.654V140.612H294.811C295.315 139.877 295.945 139.289 296.701 138.848C297.457 138.407 298.402 138.187 299.536 138.187C300.355 138.187 301.122 138.334 301.836 138.628C302.55 138.901 303.169 139.31 303.694 139.856C304.219 140.381 304.629 141.022 304.923 141.778C305.217 142.513 305.364 143.332 305.364 144.235C305.364 146.083 304.86 147.626 303.852 148.865C302.844 150.083 301.332 150.934 299.316 151.417L297.615 148.015C298.938 147.658 299.883 147.206 300.45 146.66C301.038 146.093 301.332 145.421 301.332 144.644V144.077C301.332 143.447 301.132 142.901 300.733 142.439C300.334 141.956 299.694 141.715 298.812 141.715C298.245 141.715 297.709 141.841 297.205 142.093C296.701 142.324 296.26 142.66 295.882 143.101C295.504 143.521 295.2 144.025 294.969 144.613C294.759 145.201 294.654 145.841 294.654 146.534V154H290.338V148.708ZM287.125 147.574C287.671 147.574 288.144 147.49 288.543 147.322C288.963 147.154 289.309 146.944 289.582 146.692C289.876 146.419 290.086 146.114 290.212 145.778C290.359 145.421 290.433 145.054 290.433 144.676V143.794C290.433 143.08 290.139 142.45 289.551 141.904C288.963 141.358 288.154 141.085 287.125 141.085C286.096 141.085 285.288 141.358 284.7 141.904C284.112 142.45 283.818 143.08 283.818 143.794V144.676C283.818 145.054 283.881 145.421 284.007 145.778C284.154 146.114 284.364 146.419 284.637 146.692C284.931 146.944 285.277 147.154 285.676 147.322C286.096 147.49 286.579 147.574 287.125 147.574ZM308.575 135.289H304.89V132.013H308.67V131.477C308.67 130.973 308.544 130.49 308.292 130.028C308.04 129.545 307.641 129.125 307.095 128.768C306.57 128.411 305.887 128.128 305.047 127.918C304.186 127.687 303.168 127.571 301.992 127.571C300.249 127.571 298.653 127.886 297.204 128.516C295.734 129.146 294.348 129.976 293.046 131.005L290.715 128.012C291.387 127.445 292.143 126.899 292.983 126.374C293.823 125.849 294.726 125.387 295.692 124.988C296.658 124.589 297.697 124.274 298.81 124.043C299.902 123.791 301.047 123.665 302.244 123.665C304.029 123.665 305.583 123.875 306.906 124.295C308.25 124.694 309.363 125.24 310.245 125.933C311.127 126.605 311.788 127.393 312.229 128.296C312.67 129.199 312.891 130.154 312.891 131.162V132.013H316.576V135.289H312.891V154H308.575V135.289ZM338.008 148.582H337.819C337.294 149.59 336.496 150.409 335.425 151.039C334.375 151.669 333.042 151.984 331.425 151.984C330.354 151.984 329.398 151.837 328.558 151.543C327.739 151.249 327.046 150.85 326.479 150.346C325.933 149.821 325.513 149.212 325.219 148.519C324.925 147.826 324.778 147.091 324.778 146.314C324.778 145.054 325.104 143.993 325.755 143.132C326.406 142.271 327.382 141.704 328.684 141.431V141.242C327.361 141.074 326.28 140.591 325.44 139.793C324.621 138.995 324.211 137.903 324.211 136.517C324.211 135.866 324.316 135.247 324.526 134.659C324.757 134.071 325.104 133.567 325.566 133.147C326.049 132.706 326.647 132.359 327.361 132.107C328.075 131.855 328.926 131.729 329.913 131.729C330.984 131.729 331.918 131.876 332.716 132.17C333.535 132.443 334.218 132.79 334.764 133.21L333.346 135.919C332.947 135.646 332.517 135.436 332.055 135.289C331.614 135.121 331.152 135.037 330.669 135.037C329.955 135.037 329.419 135.215 329.062 135.572C328.705 135.929 328.527 136.433 328.527 137.084C328.527 137.861 328.852 138.46 329.503 138.88C330.154 139.279 331.047 139.478 332.181 139.478H334.543V143.164H332.244C331.131 143.164 330.343 143.405 329.881 143.888C329.419 144.35 329.188 144.938 329.188 145.652C329.188 146.366 329.419 146.954 329.881 147.416C330.343 147.878 331.131 148.109 332.244 148.109C333.063 148.109 333.819 147.994 334.512 147.763C335.205 147.532 335.814 147.227 336.339 146.849C336.864 146.471 337.273 146.03 337.567 145.526C337.861 145.022 338.008 144.487 338.008 143.92V132.013H345.978V135.289H342.324V154H338.008V148.582ZM354.398 154.378C352.508 154.378 350.807 154.073 349.295 153.464C347.804 152.855 346.46 152.015 345.263 150.944L347.436 147.826C348.57 148.876 349.694 149.642 350.807 150.125C351.92 150.587 353.075 150.818 354.272 150.818C355.343 150.818 356.099 150.661 356.54 150.346C356.981 150.031 357.201 149.6 357.201 149.054V148.613C357.201 148.151 357.012 147.784 356.634 147.511C356.256 147.217 355.668 147.07 354.87 147.07H353.547C351.573 147.07 350.061 146.65 349.011 145.81C347.961 144.949 347.436 143.762 347.436 142.25C347.436 140.822 347.898 139.709 348.822 138.911C349.746 138.092 351.195 137.683 353.169 137.683H355.532V135.289H344.097V132.013H363.407V135.289H359.847V140.896H353.327C352.781 140.896 352.371 141.022 352.098 141.274C351.825 141.526 351.689 141.841 351.689 142.219V142.471C351.689 142.849 351.836 143.174 352.13 143.447C352.445 143.699 352.886 143.825 353.453 143.825H355.343C357.464 143.825 359.018 144.277 360.005 145.18C361.013 146.062 361.517 147.28 361.517 148.834C361.517 150.577 360.939 151.942 359.784 152.929C358.629 153.895 356.834 154.378 354.398 154.378ZM353.705 160.521C352.907 160.521 352.308 160.332 351.909 159.954C351.51 159.597 351.311 159.093 351.311 158.442V157.749C351.311 157.098 351.51 156.583 351.909 156.205C352.308 155.848 352.907 155.67 353.705 155.67C354.503 155.67 355.101 155.848 355.5 156.205C355.899 156.583 356.099 157.098 356.099 157.749V158.442C356.099 159.093 355.899 159.597 355.5 159.954C355.101 160.332 354.503 160.521 353.705 160.521ZM374.582 148.708H374.425C374.047 149.359 373.49 149.915 372.755 150.377C372.02 150.818 371.002 151.039 369.7 151.039C368.881 151.039 368.104 150.892 367.369 150.598C366.655 150.283 366.025 149.831 365.479 149.243C364.954 148.655 364.534 147.941 364.219 147.101C363.904 146.261 363.746 145.316 363.746 144.266C363.746 143.258 363.893 142.355 364.187 141.557C364.502 140.759 364.922 140.087 365.447 139.541C365.993 138.995 366.634 138.575 367.369 138.281C368.104 137.987 368.912 137.84 369.794 137.84C370.907 137.84 371.863 138.05 372.661 138.47C373.459 138.89 374.047 139.405 374.425 140.014H374.582V135.289H362.14V132.013H391.025V135.289H378.898V140.612H379.055C379.559 139.877 380.189 139.289 380.945 138.848C381.701 138.407 382.646 138.187 383.78 138.187C384.599 138.187 385.366 138.334 386.08 138.628C386.794 138.901 387.413 139.31 387.938 139.856C388.463 140.381 388.873 141.022 389.167 141.778C389.461 142.513 389.608 143.332 389.608 144.235C389.608 146.083 389.104 147.626 388.096 148.865C387.088 150.083 385.576 150.934 383.56 151.417L381.859 148.015C383.182 147.658 384.127 147.206 384.694 146.66C385.282 146.093 385.576 145.421 385.576 144.644V144.077C385.576 143.447 385.376 142.901 384.977 142.439C384.578 141.956 383.938 141.715 383.056 141.715C382.489 141.715 381.953 141.841 381.449 142.093C380.945 142.324 380.504 142.66 380.126 143.101C379.748 143.521 379.444 144.025 379.213 144.613C379.003 145.201 378.898 145.841 378.898 146.534V154H374.582V148.708ZM371.369 147.574C371.915 147.574 372.388 147.49 372.787 147.322C373.207 147.154 373.553 146.944 373.826 146.692C374.12 146.419 374.33 146.114 374.456 145.778C374.603 145.421 374.677 145.054 374.677 144.676V143.794C374.677 143.08 374.383 142.45 373.795 141.904C373.207 141.358 372.398 141.085 371.369 141.085C370.34 141.085 369.532 141.358 368.944 141.904C368.356 142.45 368.062 143.08 368.062 143.794V144.676C368.062 145.054 368.125 145.421 368.251 145.778C368.398 146.114 368.608 146.419 368.881 146.692C369.175 146.944 369.521 147.154 369.92 147.322C370.34 147.49 370.823 147.574 371.369 147.574ZM395.099 147.763C394.028 147.763 393.188 147.448 392.579 146.818C391.97 146.188 391.666 145.285 391.666 144.109C391.666 142.87 391.991 141.914 392.642 141.242C393.293 140.57 394.259 140.234 395.54 140.234H402.817V135.289H389.933V132.013H410.786V135.289H407.132V154H402.817V143.762H397.336V147.29C397.063 147.437 396.758 147.553 396.422 147.637C396.086 147.721 395.645 147.763 395.099 147.763Z" fill="white"/>
<defs>
<filter id="filter0_d_152_10" x="-5.32324" y="2.69458" width="461.147" height="168.173" filterUnits="userSpaceOnUse" color-interpolation-filters="sRGB">
<feFlood flood-opacity="0" result="BackgroundImageFix"/>
<feColorMatrix in="SourceAlpha" type="matrix" values="0 0 0 0 0 0 0 0 0 0 0 0 0 0 0 0 0 0 127 0" result="hardAlpha"/>
<feOffset dy="13"/>
<feGaussianBlur stdDeviation="5.5"/>
<feComposite in2="hardAlpha" operator="out"/>
<feColorMatrix type="matrix" values="0 0 0 0 0 0 0 0 0 0 0 0 0 0 0 0 0 0 0.39 0"/>
<feBlend mode="normal" in2="BackgroundImageFix" result="effect1_dropShadow_152_10"/>
<feBlend mode="normal" in="SourceGraphic" in2="effect1_dropShadow_152_10" result="shape"/>
</filter>
<filter id="filter1_d_152_10" x="168.066" y="38.4003" width="46.356" height="100.004" filterUnits="userSpaceOnUse" color-interpolation-filters="sRGB">
<feFlood flood-opacity="0" result="BackgroundImageFix"/>
<feColorMatrix in="SourceAlpha" type="matrix" values="0 0 0 0 0 0 0 0 0 0 0 0 0 0 0 0 0 0 127 0" result="hardAlpha"/>
<feOffset dy="13"/>
<feGaussianBlur stdDeviation="5.5"/>
<feComposite in2="hardAlpha" operator="out"/>
<feColorMatrix type="matrix" values="0 0 0 0 0 0 0 0 0 0 0 0 0 0 0 0 0 0 0.39 0"/>
<feBlend mode="normal" in2="BackgroundImageFix" result="effect1_dropShadow_152_10"/>
<feBlend mode="normal" in="SourceGraphic" in2="effect1_dropShadow_152_10" result="shape"/>
</filter>
<filter id="filter2_d_152_10" x="169.734" y="6.59113" width="43.799" height="45.799" filterUnits="userSpaceOnUse" color-interpolation-filters="sRGB">
<feFlood flood-opacity="0" result="BackgroundImageFix"/>
<feColorMatrix in="SourceAlpha" type="matrix" values="0 0 0 0 0 0 0 0 0 0 0 0 0 0 0 0 0 0 127 0" result="hardAlpha"/>
<feOffset dy="13"/>
<feGaussianBlur stdDeviation="5.5"/>
<feComposite in2="hardAlpha" operator="out"/>
<feColorMatrix type="matrix" values="0 0 0 0 0 0 0 0 0 0 0 0 0 0 0 0 0 0 0.39 0"/>
<feBlend mode="normal" in2="BackgroundImageFix" result="effect1_dropShadow_152_10"/>
<feBlend mode="normal" in="SourceGraphic" in2="effect1_dropShadow_152_10" result="shape"/>
</filter>
<linearGradient id="paint0_linear_152_10" x1="191.244" y1="38.5111" x2="191.244" y2="62.6456" gradientUnits="userSpaceOnUse">
<stop stop-color="#FFFDFF"/>
<stop offset="1" stop-color="#999899"/>
</linearGradient>
<radialGradient id="paint1_radial_152_10" cx="0" cy="0" r="1" gradientUnits="userSpaceOnUse" gradientTransform="translate(191.124 50.4577) rotate(90) scale(10.2572 10.2572)">
<stop stop-color="#FD8686"/>
<stop offset="0.266" stop-color="#FE6A6A"/>
<stop offset="0.416" stop-color="#FF3F3F"/>
<stop offset="0.626" stop-color="#FA2828"/>
<stop offset="1" stop-color="#C20E0E"/>
</radialGradient>
<linearGradient id="paint2_linear_152_10" x1="191.244" y1="64.3351" x2="191.244" y2="88.4697" gradientUnits="userSpaceOnUse">
<stop stop-color="#FFFDFF"/>
<stop offset="1" stop-color="#999899"/>
</linearGradient>
<radialGradient id="paint3_radial_152_10" cx="0" cy="0" r="1" gradientUnits="userSpaceOnUse" gradientTransform="translate(191.124 76.2817) rotate(90) scale(10.2572 10.2572)">
<stop stop-color="#FFE10F"/>
<stop offset="0.201" stop-color="#F9D201"/>
<stop offset="0.366" stop-color="#F9C101"/>
<stop offset="0.526" stop-color="#F8B701"/>
<stop offset="0.661" stop-color="#F8B401"/>
<stop offset="0.821" stop-color="#F8A600"/>
<stop offset="1" stop-color="#F78000"/>
</radialGradient>
<linearGradient id="paint4_linear_152_10" x1="191.244" y1="90.1591" x2="191.244" y2="114.294" gradientUnits="userSpaceOnUse">
<stop stop-color="#FFFDFF"/>
<stop offset="1" stop-color="#999899"/>
</linearGradient>
<radialGradient id="paint5_radial_152_10" cx="0" cy="0" r="1" gradientUnits="userSpaceOnUse" gradientTransform="translate(191.124 102.106) rotate(90) scale(10.2572 10.2572)">
<stop offset="0.0559998" stop-color="#21F31A"/>
<stop offset="0.301" stop-color="#0ADC09"/>
<stop offset="0.561" stop-color="#06C10D"/>
<stop offset="0.781" stop-color="#079613"/>
<stop offset="1" stop-color="#008A03"/>
</radialGradient>
<clipPath id="clip0_152_10">
<rect width="450" height="165" fill="white"/>
</clipPath>
<clipPath id="clip1_152_10">
<rect width="457" height="196.191" fill="white" transform="translate(-3 -30)"/>
</clipPath>
</defs>
</svg>
